<?xml version="1.0" standalone="no"?>
<!DOCTYPE svg PUBLIC "-//W3C//DTD SVG 20010904//EN"
 "http://www.w3.org/TR/2001/REC-SVG-20010904/DTD/svg10.dtd">
<svg version="1.0" xmlns="http://www.w3.org/2000/svg"
 width="960.000000pt" height="960.000000pt" viewBox="0 0 960.000000 960.000000"
 preserveAspectRatio="xMidYMid meet">
<metadata>
Created by potrace 1.14, written by Peter Selinger 2001-2017
</metadata>
<g transform="translate(0.000000,960.000000) scale(0.100000,-0.100000)"
fill="#000000" stroke="none">
<path d="M4579 9186 c-3 -3 -68 -13 -144 -21 -171 -19 -155 -15 -360 -82 -193
-63 -214 -73 -380 -172 -144 -87 -337 -185 -460 -236 -49 -20 -119 -53 -155
-73 -36 -20 -135 -71 -221 -114 -124 -61 -170 -90 -225 -140 -38 -35 -88 -78
-111 -96 -23 -18 -57 -56 -76 -85 -180 -274 -208 -321 -226 -379 -66 -213
-103 -352 -117 -441 -9 -56 -27 -129 -40 -163 -38 -101 -91 -322 -104 -429 -6
-55 -18 -125 -26 -156 -19 -75 -18 -187 2 -263 19 -70 23 -237 10 -393 -7 -76
-5 -114 4 -148 8 -30 9 -50 3 -56 -5 -5 -59 -19 -119 -30 -65 -12 -138 -34
-180 -54 -39 -18 -102 -38 -140 -44 -38 -7 -122 -28 -187 -47 -66 -19 -129
-34 -142 -34 -47 0 -193 -53 -340 -124 -140 -68 -157 -80 -264 -177 -111 -101
-167 -172 -238 -299 -58 -103 -171 -375 -187 -450 -9 -41 -21 -93 -27 -115
-35 -140 -48 -234 -52 -380 -3 -88 -13 -224 -23 -302 -13 -113 -15 -160 -7
-225 6 -46 10 -176 11 -290 0 -162 4 -220 17 -264 10 -33 15 -83 14 -118 -8
-175 -5 -196 39 -284 22 -46 57 -134 77 -195 19 -62 47 -149 61 -194 15 -45
43 -108 62 -140 19 -32 52 -107 72 -168 69 -204 144 -373 194 -436 26 -33 122
-113 246 -206 88 -65 164 -103 209 -103 24 0 221 -103 358 -187 59 -36 135
-81 168 -101 33 -19 76 -47 95 -62 42 -33 101 -63 155 -80 43 -13 273 -106
365 -147 33 -14 97 -30 160 -38 58 -8 130 -19 160 -25 32 -6 166 -11 317 -11
246 0 269 2 365 26 59 14 148 27 208 30 69 4 166 19 280 45 144 32 182 38 215
30 22 -5 76 -10 120 -10 44 0 111 -5 150 -11 178 -25 406 -8 549 41 48 16 200
103 271 156 29 21 37 21 210 17 128 -4 215 0 302 10 129 17 162 30 299 115 34
21 93 49 130 61 38 12 106 40 150 62 67 34 100 43 190 55 175 23 384 79 501
135 56 27 104 49 107 49 5 0 114 49 336 150 47 22 127 53 179 70 109 35 181
76 294 169 100 81 216 168 277 207 25 16 90 62 145 104 55 41 127 92 160 113
126 82 309 222 416 321 36 34 100 91 142 129 50 45 92 93 123 145 26 42 78
125 116 185 38 59 81 136 94 170 14 34 43 100 66 146 22 46 67 165 100 264 33
100 68 198 79 219 10 20 34 97 53 170 19 73 39 146 45 162 26 65 46 291 57
633 6 170 4 212 -9 260 -9 32 -21 98 -26 146 -6 48 -12 91 -15 96 -7 11 -73
344 -81 411 -4 30 -17 98 -30 150 -13 52 -29 132 -35 177 -11 84 -26 132 -103
338 -24 66 -48 140 -51 165 -13 83 -36 147 -76 216 -22 38 -54 105 -71 149
-70 179 -126 270 -183 296 -54 23 -58 29 -84 107 -21 62 -88 168 -132 207 -12
11 -32 43 -45 70 -34 75 -155 186 -305 278 -69 42 -161 106 -205 142 -44 36
-122 99 -172 141 -51 41 -117 99 -145 130 -29 31 -75 72 -103 92 -27 19 -61
46 -75 58 -41 38 -400 229 -517 275 -41 17 -100 47 -132 68 -32 20 -80 45
-107 55 -121 44 -166 63 -274 116 -63 32 -162 74 -219 95 -58 20 -184 75 -280
122 -203 97 -275 120 -423 133 -59 6 -136 17 -172 25 -36 8 -114 20 -173 25
-59 5 -137 17 -173 25 -85 20 -549 54 -561 41z m261 -265 c87 -1 212 -18 335
-45 39 -9 97 -16 130 -16 33 0 87 -7 120 -15 33 -8 107 -19 165 -25 137 -13
206 -31 310 -84 98 -50 346 -158 405 -176 22 -7 104 -43 182 -81 78 -37 174
-79 213 -93 39 -14 101 -44 137 -66 36 -22 92 -50 124 -62 33 -13 59 -27 59
-31 0 -5 5 -5 10 -2 6 3 10 1 10 -5 0 -6 5 -8 10 -5 6 3 10 1 10 -5 0 -6 5 -8
10 -5 6 3 10 1 10 -5 0 -6 4 -9 9 -6 5 4 11 3 13 -2 3 -7 41 -29 268 -155 81
-45 190 -128 233 -177 20 -23 37 -39 37 -35 0 4 9 -4 21 -19 11 -14 25 -24 30
-20 5 3 12 -2 15 -10 5 -14 123 -116 207 -180 20 -16 37 -32 37 -36 0 -4 -26
-10 -57 -14 -218 -24 -226 -27 -331 -107 -35 -27 -71 -49 -80 -49 -9 0 -66
-14 -127 -31 -155 -44 -267 -103 -346 -181 -34 -35 -62 -66 -61 -70 1 -5 -2
-8 -8 -8 -6 0 -9 -3 -8 -7 1 -5 -13 -54 -31 -110 -32 -99 -33 -105 -28 -235 8
-195 23 -361 42 -463 12 -60 15 -112 11 -160 -5 -60 -3 -80 20 -140 50 -138
91 -261 98 -297 4 -21 25 -77 46 -124 22 -47 46 -114 54 -148 22 -90 113 -344
143 -395 14 -25 38 -56 52 -70 14 -13 19 -21 11 -17 -8 4 -6 0 5 -9 11 -9 20
-20 20 -26 0 -5 7 -14 15 -19 8 -5 11 -10 5 -10 -5 0 1 -10 15 -21 14 -11 18
-18 10 -14 -8 4 -6 -1 5 -10 11 -9 20 -20 20 -26 0 -6 16 -24 35 -41 19 -16
28 -27 20 -23 -8 3 -1 -6 15 -20 17 -15 23 -24 15 -20 -8 4 -4 -3 10 -15 14
-12 18 -18 10 -14 -8 4 20 -25 62 -65 43 -40 76 -76 73 -80 -2 -4 14 -25 37
-47 22 -21 38 -32 34 -24 -4 8 2 4 14 -10 12 -14 19 -18 15 -10 -4 10 -2 9 8
-2 8 -10 17 -15 20 -11 4 3 7 1 7 -6 0 -7 5 -9 10 -6 6 3 10 1 10 -5 0 -7 7
-10 15 -6 8 3 15 1 15 -5 0 -6 9 -8 21 -4 16 5 19 4 14 -5 -6 -10 -1 -11 19
-6 16 4 26 2 26 -5 0 -7 9 -9 25 -5 15 4 25 2 25 -4 0 -7 8 -9 20 -5 12 4 20
2 20 -5 0 -7 8 -9 20 -5 11 3 20 3 20 -2 0 -4 58 -8 129 -8 74 0 127 4 124 9
-4 5 6 6 21 2 16 -4 26 -2 26 4 0 7 8 9 20 5 11 -4 20 -2 20 4 0 6 7 8 15 5 8
-4 15 -1 15 6 0 6 5 8 10 5 6 -3 10 -1 10 5 0 6 4 9 9 6 13 -8 42 4 35 15 -3
5 3 6 12 2 12 -4 15 -3 10 5 -4 8 -2 10 8 6 8 -3 24 4 35 15 12 12 21 18 21
14 0 -4 7 2 16 13 8 10 12 12 8 4 -4 -8 11 3 34 25 44 42 50 50 30 40 -7 -4
-2 3 12 14 14 11 22 21 18 21 -5 0 1 9 12 20 12 12 18 25 15 30 -4 6 -1 10 5
10 6 0 9 4 6 9 -3 5 1 12 10 15 9 4 14 13 10 21 -3 8 -1 15 5 15 6 0 7 5 4 10
-3 6 -2 10 4 10 6 0 7 7 4 17 -5 11 -3 14 6 8 10 -5 11 -2 6 14 -4 13 -2 21 5
21 7 0 9 8 5 20 -4 12 -2 20 5 20 7 0 10 7 6 15 -3 8 -1 15 4 15 5 0 6 7 3 17
-4 11 -3 14 5 9 10 -6 17 6 10 18 -2 2 8 14 22 26 14 12 18 18 10 15 -8 -4 -1
4 15 19 17 14 27 25 23 26 -5 0 1 9 13 21 13 13 18 27 14 40 -4 11 -2 19 5 19
7 0 9 8 5 20 -4 12 -2 20 5 20 7 0 10 8 7 20 -3 11 -1 23 5 26 5 3 7 12 4 19
-2 7 -1 16 3 21 5 5 16 39 26 76 15 57 17 86 10 185 -4 65 -8 159 -9 208 -1
50 -5 93 -10 97 -5 3 -13 51 -17 105 -7 103 -19 182 -44 298 -16 78 -20 144
-6 129 5 -5 23 -54 41 -109 18 -55 52 -147 76 -205 31 -76 45 -130 53 -197 6
-50 20 -120 30 -155 11 -35 27 -112 36 -173 23 -152 44 -256 57 -282 6 -13 9
-66 6 -142 -2 -67 -1 -121 4 -121 4 0 5 -7 2 -15 -4 -8 -1 -15 5 -15 6 0 8 -7
5 -15 -4 -8 -1 -15 6 -15 6 0 9 -4 5 -9 -3 -5 -1 -12 4 -16 6 -3 8 -12 4 -20
-3 -8 0 -15 7 -15 7 0 9 -8 5 -20 -3 -11 -3 -20 2 -20 4 0 8 -34 9 -75 0 -41
-3 -75 -8 -75 -4 0 -8 -11 -8 -25 0 -14 5 -25 10 -25 14 0 13 -277 -1 -285 -6
-4 -7 -19 -4 -37 5 -23 4 -29 -5 -23 -10 6 -11 -3 -6 -39 5 -31 3 -52 -4 -61
-7 -8 -10 -22 -6 -30 3 -8 1 -15 -5 -15 -6 0 -9 -7 -5 -15 3 -8 1 -15 -5 -15
-6 0 -8 -9 -4 -21 5 -16 4 -19 -5 -14 -9 5 -10 1 -5 -15 5 -17 4 -21 -6 -15
-9 6 -11 3 -6 -8 4 -10 2 -17 -4 -17 -6 0 -9 -7 -5 -15 3 -8 1 -15 -5 -15 -6
0 -9 -7 -5 -15 3 -8 1 -15 -5 -15 -6 0 -9 -7 -5 -15 3 -8 1 -15 -5 -15 -6 0
-7 -4 -4 -10 3 -5 1 -10 -5 -10 -6 0 -8 -4 -5 -10 3 -5 2 -10 -4 -10 -6 0 -8
-7 -5 -15 4 -8 1 -15 -6 -15 -7 0 -9 -8 -5 -20 4 -12 2 -20 -5 -20 -7 0 -9 -8
-5 -21 5 -16 4 -19 -5 -14 -10 6 -12 1 -7 -23 4 -20 2 -32 -4 -32 -6 0 -9 -7
-5 -15 3 -8 1 -15 -5 -15 -6 0 -9 -7 -5 -15 3 -8 1 -15 -5 -15 -6 0 -7 -4 -4
-10 3 -5 1 -10 -5 -10 -7 0 -10 -7 -6 -15 3 -8 1 -15 -5 -15 -6 0 -8 -9 -4
-20 4 -12 2 -20 -5 -20 -7 0 -10 -7 -7 -15 4 -8 2 -17 -3 -20 -5 -3 -6 -13 -3
-22 5 -12 3 -14 -7 -8 -10 6 -12 4 -7 -8 4 -10 2 -17 -4 -17 -6 0 -9 -7 -5
-15 3 -8 1 -15 -5 -15 -6 0 -9 -7 -5 -15 3 -8 1 -15 -5 -15 -6 0 -9 -7 -5 -15
3 -8 1 -15 -5 -15 -6 0 -7 -4 -4 -10 3 -5 1 -10 -5 -10 -6 0 -8 -4 -5 -10 3
-5 1 -10 -5 -10 -6 0 -8 -4 -5 -10 3 -5 1 -10 -5 -10 -6 0 -8 -4 -5 -10 3 -5
1 -10 -5 -10 -6 0 -8 -4 -5 -10 3 -5 1 -10 -5 -10 -6 0 -8 -4 -5 -10 3 -5 1
-10 -5 -10 -6 0 -8 -4 -5 -10 3 -5 1 -10 -5 -10 -7 0 -10 -7 -6 -15 3 -8 1
-15 -4 -15 -5 0 -7 -7 -4 -15 4 -8 1 -15 -6 -15 -6 0 -8 -4 -5 -10 3 -5 1 -10
-5 -10 -6 0 -8 -4 -5 -10 3 -5 1 -10 -5 -10 -6 0 -8 -4 -5 -10 3 -5 1 -10 -6
-10 -7 0 -9 -3 -6 -7 4 -3 -1 -12 -11 -20 -11 -10 -12 -12 -2 -8 8 4 6 -1 -4
-9 -11 -9 -16 -16 -10 -16 5 0 -2 -10 -16 -21 -14 -11 -18 -17 -10 -13 8 4 0
-7 -18 -24 -19 -17 -31 -36 -27 -42 3 -5 1 -10 -6 -10 -7 0 -10 -3 -6 -6 3 -3
-3 -14 -14 -25 -11 -11 -17 -24 -14 -29 4 -6 1 -10 -6 -10 -7 0 -9 -3 -6 -7 4
-3 -1 -12 -11 -20 -10 -9 -11 -12 -2 -7 8 4 -1 -8 -21 -27 -19 -19 -26 -27
-15 -19 12 8 9 1 -8 -18 -31 -34 -41 -40 -31 -19 4 6 -3 1 -15 -13 -12 -14
-26 -25 -30 -25 -4 0 -16 -9 -26 -20 -11 -12 -15 -14 -10 -5 5 8 -24 -19 -65
-60 -41 -41 -78 -74 -82 -75 -5 0 -17 -11 -28 -25 -12 -14 -18 -18 -14 -10 4
8 -7 -1 -25 -20 -18 -19 -27 -26 -20 -15 7 11 -5 2 -25 -20 -21 -22 -32 -31
-25 -20 7 11 -2 4 -20 -15 -18 -19 -29 -28 -26 -20 4 8 0 6 -9 -5 -9 -11 -21
-19 -26 -17 -5 1 -12 -5 -15 -13 -3 -8 -10 -12 -15 -9 -5 3 -12 -2 -15 -10 -3
-9 -10 -13 -15 -10 -5 3 -12 -2 -15 -10 -3 -9 -10 -13 -15 -10 -5 3 -12 -2
-15 -10 -3 -9 -10 -13 -15 -10 -5 3 -9 0 -9 -6 0 -6 -4 -9 -9 -5 -6 3 -14 -3
-20 -12 -6 -10 -11 -13 -11 -8 0 6 -10 -1 -21 -15 -11 -14 -18 -18 -14 -10 3
8 -10 -3 -30 -25 -20 -22 -34 -33 -30 -25 3 8 -3 4 -16 -10 -12 -14 -26 -24
-31 -22 -5 1 -11 -5 -14 -13 -3 -8 -10 -12 -15 -9 -5 3 -12 -2 -15 -10 -3 -9
-10 -13 -15 -10 -5 3 -9 0 -9 -6 0 -6 -4 -9 -9 -5 -6 3 -14 -3 -20 -12 -6 -10
-11 -13 -11 -8 0 6 -12 -3 -26 -20 -14 -16 -23 -23 -19 -15 4 8 -3 4 -15 -10
-12 -14 -26 -25 -31 -25 -4 0 -15 -9 -24 -20 -9 -11 -14 -13 -10 -5 4 8 -3 4
-15 -10 -12 -14 -19 -18 -15 -10 3 8 -15 -7 -41 -35 -26 -27 -41 -41 -34 -30
7 11 0 7 -15 -10 -16 -16 -32 -30 -36 -30 -5 0 -15 -9 -24 -20 -9 -11 -14 -13
-10 -5 4 8 -2 5 -13 -7 -11 -12 -22 -19 -26 -16 -3 3 -8 -2 -12 -11 -3 -9 -10
-13 -15 -10 -5 3 -9 0 -9 -6 0 -6 -4 -8 -10 -5 -5 3 -10 1 -10 -5 0 -6 -4 -8
-10 -5 -5 3 -10 1 -10 -5 0 -7 -7 -10 -15 -6 -8 3 -15 1 -15 -5 0 -6 -9 -8
-20 -4 -12 4 -20 2 -20 -5 0 -7 -8 -9 -20 -5 -11 4 -20 2 -20 -4 0 -6 -7 -7
-17 -4 -12 5 -14 3 -8 -7 6 -10 4 -12 -8 -7 -10 3 -17 2 -17 -4 0 -6 -4 -7
-10 -4 -5 3 -10 1 -10 -5 0 -6 -4 -8 -10 -5 -12 7 -70 -22 -70 -36 0 -6 -4 -7
-10 -4 -5 3 -10 1 -10 -5 0 -6 -4 -9 -9 -5 -5 3 -12 1 -16 -5 -4 -6 -11 -8
-16 -5 -5 4 -9 2 -9 -4 0 -6 -7 -8 -15 -5 -8 4 -15 1 -15 -5 0 -6 -7 -8 -15
-5 -8 4 -15 1 -15 -6 0 -6 -4 -8 -10 -5 -5 3 -10 1 -10 -5 0 -6 -4 -8 -10 -5
-5 3 -10 1 -10 -6 0 -7 -3 -9 -7 -6 -3 4 -12 -1 -20 -11 -8 -9 -12 -11 -8 -5
4 9 1 11 -9 7 -9 -3 -13 -10 -10 -15 3 -5 -2 -6 -10 -3 -9 3 -16 1 -16 -6 0
-6 -4 -8 -10 -5 -5 3 -10 2 -10 -4 0 -6 -7 -7 -17 -4 -12 5 -14 3 -8 -7 6 -10
4 -12 -8 -7 -10 3 -17 2 -17 -4 0 -6 -4 -7 -10 -4 -5 3 -10 2 -10 -4 0 -6 -7
-7 -17 -4 -12 5 -14 3 -8 -7 6 -10 4 -12 -8 -7 -10 3 -17 2 -17 -4 0 -6 -4 -7
-10 -4 -5 3 -10 1 -10 -5 0 -6 -4 -8 -10 -5 -5 3 -10 1 -10 -5 0 -6 -4 -8 -10
-5 -5 3 -10 1 -10 -5 0 -6 -4 -8 -10 -5 -5 3 -10 1 -10 -5 0 -6 -4 -8 -10 -5
-5 3 -10 1 -10 -5 0 -6 -4 -9 -9 -5 -5 3 -12 1 -16 -4 -3 -6 -12 -8 -20 -4 -8
3 -15 0 -15 -6 0 -7 -9 -9 -25 -5 -16 4 -25 2 -25 -6 0 -7 -8 -9 -20 -5 -12 4
-20 2 -20 -5 0 -7 -8 -9 -20 -5 -11 3 -20 2 -20 -3 0 -6 -10 -8 -22 -4 -15 4
-19 2 -13 -7 5 -10 2 -11 -14 -6 -13 4 -21 2 -21 -5 0 -8 -10 -9 -29 -5 -16 3
-32 2 -35 -4 -4 -6 -25 -8 -51 -4 -32 4 -45 2 -45 -6 0 -9 -10 -11 -30 -6 -20
4 -30 3 -30 -5 0 -7 -8 -9 -20 -5 -11 4 -20 2 -20 -4 0 -6 -7 -8 -15 -5 -8 4
-15 1 -15 -5 0 -6 -7 -8 -15 -5 -8 4 -15 1 -15 -5 0 -6 -6 -8 -14 -5 -8 3 -23
-3 -34 -13 -10 -10 -25 -19 -33 -21 -8 -2 -18 -9 -24 -16 -5 -7 -16 -11 -22
-9 -7 3 -13 0 -13 -6 0 -6 -7 -8 -15 -5 -8 4 -15 1 -15 -5 0 -6 -7 -8 -15 -5
-8 4 -15 1 -15 -5 0 -6 -7 -8 -15 -5 -8 4 -15 1 -15 -6 0 -6 -4 -8 -10 -5 -5
3 -10 2 -10 -4 0 -6 -7 -8 -15 -5 -8 4 -15 1 -15 -6 0 -6 -4 -8 -10 -5 -5 3
-10 2 -10 -3 0 -5 -6 -9 -13 -9 -8 0 -33 -13 -58 -30 -76 -52 -112 -66 -189
-74 -41 -4 -77 -5 -79 -4 -1 2 8 19 22 37 70 94 175 350 202 493 27 149 42
214 75 335 71 265 72 668 2 860 -17 47 -40 113 -52 146 -15 42 -42 86 -87 140
-36 44 -91 111 -121 149 -30 39 -78 94 -106 123 l-51 53 22 17 c12 9 40 30 63
46 68 46 88 121 50 183 -25 42 -55 60 -109 69 -35 6 -42 4 -36 -6 5 -9 4 -11
-4 -6 -17 11 -75 -11 -108 -41 -15 -15 -80 -66 -143 -114 -63 -48 -133 -107
-156 -131 -25 -27 -87 -68 -160 -108 -87 -47 -135 -82 -179 -126 -64 -65 -92
-84 -124 -84 -11 0 -77 -18 -148 -39 -70 -21 -159 -44 -198 -50 -413 -67 -632
-110 -703 -137 -316 -122 -432 -138 -937 -132 -192 3 -363 8 -380 11 -16 4
-82 9 -145 12 -129 6 -143 7 -184 24 -16 6 -38 13 -50 16 -11 2 -23 4 -26 5
-3 2 -8 2 -12 1 -5 0 -8 4 -8 11 0 6 -3 8 -7 5 -3 -4 -12 -2 -20 4 -7 6 -13 9
-13 6 0 -14 -81 18 -136 54 -33 21 -81 46 -107 55 -26 9 -49 20 -53 25 -23 39
-30 239 -10 316 14 58 68 187 137 328 23 48 174 264 208 298 4 4 34 -5 67 -20
51 -24 71 -28 149 -28 111 0 131 10 241 114 44 42 100 93 123 115 55 49 83
112 89 201 9 156 -46 283 -183 420 -101 101 -194 155 -299 174 -77 14 -240 14
-291 0 -99 -28 -253 -166 -305 -273 -38 -80 -45 -148 -26 -270 20 -131 44
-177 126 -238 96 -71 91 -67 81 -87 -6 -10 -47 -69 -92 -132 -45 -63 -96 -145
-114 -184 -142 -310 -154 -346 -165 -508 -9 -133 -13 -147 -34 -147 -24 0
-221 91 -229 106 -4 8 -12 12 -18 9 -5 -4 -12 1 -15 9 -3 9 -10 13 -15 10 -5
-3 -9 0 -9 6 0 6 -5 8 -10 5 -6 -3 -10 -1 -10 5 0 6 -4 8 -10 5 -5 -3 -10 -1
-10 5 0 6 -4 8 -10 5 -5 -3 -10 -1 -10 5 0 6 -4 8 -10 5 -5 -3 -10 -1 -10 5 0
6 -5 8 -10 5 -6 -3 -10 -1 -10 6 0 7 -3 10 -6 6 -9 -9 -60 19 -127 69 -33 24
-67 44 -77 44 -38 0 -47 24 -53 147 -4 68 -2 152 4 198 6 44 14 168 18 275 6
159 12 215 34 305 15 61 34 144 42 185 30 145 198 485 274 554 19 17 63 57 96
89 103 96 387 227 491 227 20 0 75 13 122 30 48 16 130 38 183 49 53 10 129
33 168 51 40 17 120 40 179 51 59 11 147 36 195 55 92 37 137 44 402 65 196
15 423 28 680 38 170 7 239 14 305 31 47 12 144 26 215 31 282 20 323 30 359
83 9 14 16 44 16 66 0 86 -63 130 -188 130 -44 0 -103 -5 -133 -10 -31 -6 -57
-6 -62 -1 -5 5 2 39 16 82 87 264 87 262 87 381 1 62 5 133 10 158 18 86 -11
260 -90 530 -52 181 -120 327 -186 399 -27 30 -63 81 -79 115 -29 58 -35 63
-109 101 -78 40 -79 40 -196 40 -116 0 -117 0 -196 -40 -115 -58 -160 -90
-194 -140 -41 -59 -96 -205 -110 -290 -8 -47 -30 -107 -65 -180 -40 -82 -59
-137 -75 -215 -23 -118 -44 -366 -36 -423 4 -21 28 -84 55 -140 27 -56 62
-131 78 -167 17 -36 53 -92 80 -125 62 -74 114 -155 107 -166 -3 -5 -31 -9
-62 -9 -31 0 -104 -4 -162 -10 -369 -34 -344 -33 -361 -11 -14 17 -16 47 -11
235 4 185 2 226 -13 288 -20 82 -22 149 -5 193 7 17 16 72 21 122 8 91 67 332
108 444 11 31 27 105 36 163 9 59 21 119 26 134 6 15 28 91 50 170 38 140 42
149 135 293 69 106 111 161 147 191 29 23 75 63 103 89 32 30 87 64 150 93 54
26 113 54 129 63 156 84 203 107 289 143 169 70 414 201 539 287 77 52 363
141 512 159 66 8 143 18 170 22 28 4 73 4 100 0 28 -3 88 -7 135 -7z m-1603
-1443 c11 -13 24 -34 28 -48 4 -13 31 -49 59 -80 29 -30 59 -66 67 -80 22 -36
56 -135 74 -213 8 -37 28 -102 45 -145 42 -107 53 -204 47 -406 -5 -165 -7
-175 -46 -295 -22 -68 -58 -153 -80 -190 -21 -36 -42 -77 -46 -91 -4 -14 -11
-30 -16 -36 -13 -16 -198 -28 -232 -15 -28 11 -110 127 -101 143 3 4 24 16 47
26 86 38 172 169 211 318 18 70 20 121 6 180 -5 23 -14 83 -20 133 -11 100
-29 143 -90 226 -21 27 -52 79 -69 113 -41 82 -101 147 -156 167 -24 10 -45
25 -48 35 -7 28 46 176 74 206 65 70 202 99 246 52z m-2635 -4631 c97 -58 333
-150 473 -184 110 -27 151 -42 192 -70 30 -21 121 -60 220 -96 l168 -60 170
-10 c174 -11 1015 -16 1094 -7 44 5 45 4 54 -30 38 -144 77 -240 142 -350 18
-30 52 -107 75 -170 74 -204 82 -222 171 -403 90 -184 109 -233 153 -397 14
-52 44 -137 66 -189 27 -62 38 -97 31 -104 -18 -18 -174 -47 -255 -47 -52 0
-122 -10 -208 -31 -127 -29 -135 -30 -342 -27 -273 5 -415 25 -551 79 -55 22
-165 65 -244 95 -121 47 -169 72 -303 160 -88 58 -167 108 -176 111 -9 4 -42
22 -72 41 -78 50 -196 102 -230 102 -35 0 -141 55 -225 118 -35 26 -82 61
-105 77 -83 60 -112 103 -177 260 -34 83 -74 188 -88 235 -14 47 -41 108 -60
136 -31 48 -60 123 -84 219 -13 53 -61 183 -101 270 -30 67 -32 76 -34 215 -1
80 -6 155 -10 168 -8 20 2 17 100 -31 60 -29 130 -65 156 -80z"/>
<path d="M5125 7495 c-50 -26 -98 -54 -108 -63 -22 -19 -124 -182 -143 -229
-21 -50 -74 -249 -90 -338 -18 -105 -18 -269 2 -375 9 -47 20 -152 25 -235 15
-261 33 -368 100 -594 10 -35 19 -79 19 -96 0 -66 30 -229 50 -269 35 -71 162
-219 210 -246 43 -24 52 -25 258 -28 207 -3 213 -3 265 21 36 16 69 43 103 82
27 32 81 90 119 129 78 79 90 105 161 371 34 125 35 133 25 211 -6 44 -11 104
-11 134 0 130 -40 354 -80 448 -33 77 -72 206 -100 327 -33 145 -69 279 -94
345 -13 36 -29 90 -36 122 -6 31 -24 76 -41 101 -33 50 -132 135 -219 188 -54
34 -57 34 -190 37 l-136 4 -89 -47z m271 -220 c27 -8 66 -29 86 -48 34 -31 36
-37 35 -88 -1 -58 9 -81 66 -153 22 -27 37 -70 63 -173 65 -260 87 -338 131
-450 49 -129 70 -252 80 -474 6 -150 1 -188 -50 -333 -24 -70 -40 -99 -76
-136 -25 -26 -64 -69 -87 -96 l-41 -49 -143 0 -142 0 -39 45 c-49 56 -79 117
-79 158 0 38 8 43 128 65 143 27 182 77 222 282 30 156 29 285 -5 395 -25 83
-41 148 -71 280 -18 80 -66 185 -102 223 -15 16 -49 41 -77 55 -50 26 -58 27
-247 32 -14 0 -9 29 27 164 57 209 134 303 261 315 6 1 33 -6 60 -14z"/>
<path d="M6984 7168 l-29 -33 33 29 c30 28 37 36 29 36 -2 0 -16 -15 -33 -32z"/>
<path d="M7620 4575 c30 -30 57 -55 59 -55 3 0 -19 25 -49 55 -30 30 -57 55
-59 55 -3 0 19 -25 49 -55z"/>
</g>
</svg>
